<svg width="1791.9999999999998" height="1791.9999999999998" xmlns="http://www.w3.org/2000/svg">

 <g>
  <title>background</title>
  <rect fill="none" id="canvas_background" height="402" width="582" y="-1" x="-1"/>
 </g>
 <g>
  <title>Layer 1</title>
  <path fill="#ffffff" id="svg_1" d="m526.179105,1352q-8,9 -20,-3q-13,-11 -4,-19q8,-9 20,3q12,11 4,19zm-42,-61q9,12 0,19q-8,6 -17,-7t0,-18q9,-7 17,6zm-61,-60q-5,7 -13,2q-10,-5 -7,-12q3,-5 13,-2q10,5 7,12zm31,34q-6,7 -16,-3q-9,-11 -2,-16q6,-6 16,3q9,11 2,16zm129,112q-4,12 -19,6q-17,-4 -13,-15t19,-7q16,5 13,16zm63,5q0,11 -16,11q-17,2 -17,-11q0,-11 16,-11q17,-2 17,11zm58,-10q2,10 -14,14t-18,-8t14,-15q16,-2 18,9zm964,-956l0,960q0,119 -84.5,203.5t-203.5,84.5l-224,0q-16,0 -24.5,-1t-19.5,-5t-16,-14.5t-5,-27.5l0,-239q0,-97 -52,-142q57,-6 102.5,-18t94,-39t81,-66.5t53,-105t20.5,-150.5q0,-121 -79,-206q37,-91 -8,-204q-28,-9 -81,11t-92,44l-38,24q-93,-26 -192,-26t-192,26q-16,-11 -42.5,-27t-83.5,-38.5t-86,-13.5q-44,113 -7,204q-79,85 -79,206q0,85 20.5,150t52.5,105t80.5,67t94,39t102.5,18q-40,36 -49,103q-21,10 -45,15t-57,5t-65.5,-21.5t-55.5,-62.5q-19,-32 -48.5,-52t-49.5,-24l-20,-3q-21,0 -29,4.5t-5,11.5t9,14t13,12l7,5q22,10 43.5,38t31.5,51l10,23q13,38 44,61.5t67,30t69.5,7t55.5,-3.5l23,-4q0,38 0.5,103t0.5,68q0,22 -11,33.5t-22,13t-33,1.5l-224,0q-119,0 -203.5,-84.5t-84.5,-203.5l0,-960q0,-119 84.5,-203.5t203.5,-84.5l960,0q119,0 203.5,84.5t84.5,203.5z"/>
 </g>
</svg>