<svg width="512" height="512" xmlns="http://www.w3.org/2000/svg">

 <g>
  <title>background</title>
  <rect fill="none" id="canvas_background" height="402" width="582" y="-1" x="-1"/>
 </g>
 <g>
  <title>Layer 1</title>
  <path fill="#ffffff" id="svg_2" d="m385.708,476.478l-130.966,-162.765l125.578,-121.534c2.334,-2.426 1.526,-9.433 -4.761,-9.433l-62.16,0c-3.145,0 -6.288,1.618 -9.433,4.761l-118.838,120.097l0,-274.866c0,-4.491 -2.247,-6.737 -6.738,-6.737l-46.618,0c-4.492,0 -6.737,2.246 -6.737,6.737l0,446.433c0,4.491 2.246,6.738 6.737,6.738l46.618,0c4.491,0 6.738,-2.247 6.738,-6.738l0,-97.91l27.666,-26.317l99.257,126.294c2.695,3.145 5.839,4.762 9.432,4.762l60.095,0c3.143,0 4.939,-0.899 5.389,-2.696l-1.259,-6.826z"/>
 </g>
</svg>