<svg width="1792" height="1792" xmlns="http://www.w3.org/2000/svg">

 <g>
  <title>background</title>
  <rect fill="none" id="canvas_background" height="402" width="582" y="-1" x="-1"/>
 </g>
 <g>
  <title>Layer 1</title>
  <path fill="#ffffff" id="svg_1" d="m365,1414l231,0l0,-694l-231,0l0,694zm246,-908q-1,-52 -36,-86t-93,-34t-94.5,34t-36.5,86q0,51 35.5,85.5t92.5,34.5l1,0q59,0 95,-34.5t36,-85.5zm585,908l231,0l0,-398q0,-154 -73,-233t-193,-79q-136,0 -209,117l2,0l0,-101l-231,0q3,66 0,694l231,0l0,-388q0,-38 7,-56q15,-35 45,-59.5t74,-24.5q116,0 116,157l0,371zm468,-998l0,960q0,119 -84.5,203.5t-203.5,84.5l-960,0q-119,0 -203.5,-84.5t-84.5,-203.5l0,-960q0,-119 84.5,-203.5t203.5,-84.5l960,0q119,0 203.5,84.5t84.5,203.5z"/>
 </g>
</svg>